<svg width="356" height="432" viewBox="0 0 356 432" fill="none" xmlns="http://www.w3.org/2000/svg">
<g clip-path="url(#clip0_1503_187)">
<path d="M7.3781 305.9C8.34524 305.9 9.12925 305.115 9.12925 304.147C9.12925 303.179 8.34524 302.395 7.3781 302.395C6.41097 302.395 5.62695 303.179 5.62695 304.147C5.62695 305.115 6.41097 305.9 7.3781 305.9Z" fill="#F7DDC6"/>
<path d="M76.3898 305.9C77.357 305.9 78.141 305.115 78.141 304.147C78.141 303.179 77.357 302.395 76.3898 302.395C75.4227 302.395 74.6387 303.179 74.6387 304.147C74.6387 305.115 75.4227 305.9 76.3898 305.9Z" fill="#F7DDC6"/>
<path d="M78.572 321.903V307.337L77.108 305.871H75.6726L74.2085 307.337H65.0509V238.267H69.9598V232.693H72.687V226.257H75.8161V219.822H61.0318V169.427H62.094V164.084H64.0461V157.935H66.2853V151.787H56.2951V124.607H57.7018V120.441H59.2233V115.614H60.9744V110.787H55.1755V93.8648C55.1755 89.1817 51.989 85.2455 47.6829 84.0963V73.552L44.4103 68.7539H39.4152L36.1426 73.552V84.0963C31.8365 85.2455 28.6499 89.1817 28.6499 93.8648V110.787H22.8511V115.614H24.6022V120.441H26.1237V124.607H27.5304V151.787H17.5402V157.935H19.7794V164.084H21.7315V169.427H22.7936V219.822H7.95194V226.257H11.081V232.693H13.7795V238.267H18.6885V307.337H9.53084L8.06677 305.871H6.6314L5.16732 307.337V321.903H0V328.827H3.87549V335.752H7.23425V341.756H14.7269V431.972H69.0986V341.756H76.5912V335.752H79.95V328.827H83.7968V321.903H78.572Z" fill="#F7DDC6"/>
<path d="M65.0792 249.816V257.717L60.4286 264.153L55.8067 257.717L51.1848 264.153L46.5342 257.717L41.8836 264.153L37.2618 257.717L32.6112 264.153L27.9893 257.717L23.3387 264.153L18.7168 257.717V249.816L23.3387 256.252L27.9893 249.816L32.6112 256.252L37.2618 249.816L41.8836 256.252L46.5342 249.816L51.1848 256.252L55.8067 249.816L60.4286 256.252L65.0792 249.816Z" fill="#91665A"/>
<path d="M65.0792 265.619V273.549L60.4286 279.956L55.8067 273.549L51.1848 279.956L46.5342 273.549L41.8836 279.956L37.2618 273.549L32.6112 279.956L27.9893 273.549L23.3387 279.956L18.7168 273.549V265.619L23.3387 272.055L27.9893 265.619L32.6112 272.055L37.2618 265.619L41.8836 272.055L46.5342 265.619L51.1848 272.055L55.8067 265.619L60.4286 272.055L65.0792 265.619Z" fill="#91665A"/>
<path d="M65.0792 281.449V289.379L60.4286 295.815L55.8067 289.379L51.1848 295.815L46.5342 289.379L41.8836 295.815L37.2618 289.379L32.6112 295.815L27.9893 289.379L23.3387 295.815L18.7168 289.379V281.449L23.3387 287.885L27.9893 281.449L32.6112 287.885L37.2618 281.449L41.8836 287.885L46.5342 281.449L51.1848 287.885L55.8067 281.449L60.4286 287.885L65.0792 281.449Z" fill="#91665A"/>
<path d="M355.999 427.634V430.335H90.2842V427.634L99.6141 409.562H93.4994L97.9203 406.574L115.461 404.994L117.097 404.85L122.752 404.362L151.46 403.299L153.182 403.241L154.589 403.184L167.651 402.696L223.142 402.408L278.633 402.696L293.102 403.241L294.853 403.299L323.56 404.362L329.216 404.85L330.823 404.994L348.363 406.574L352.813 409.562H346.67L355.999 427.634Z" fill="#C4C4C4"/>
<path d="M352.814 404.046V409.591L348.393 406.603L330.852 405.022L329.216 404.879L323.561 404.362L294.853 403.299L293.102 403.241L278.634 402.695L223.142 402.408L167.651 402.695L154.589 403.184L153.183 403.241L151.46 403.299L122.753 404.362L117.097 404.879L115.461 405.022L97.9209 406.603L93.5 409.591V404.046L97.9209 401.029L107.394 400.196V378.159L111.959 374.079L117.557 372.987V354.341C118.389 353.824 119.251 353.335 120.198 352.818V335.263C122.006 334.315 124.045 333.396 126.37 332.534C126.513 313.428 132.37 298.057 141.614 281.709C150.427 266.108 169.402 255.19 176.091 251.283C183.01 247.231 208.588 229.361 214.243 224.706C214.243 224.735 214.243 224.764 214.243 224.793C214.387 224.793 214.53 224.764 214.702 224.735C214.789 224.735 214.903 224.706 214.99 224.706C215.248 224.678 215.535 224.62 215.822 224.591C216.08 224.591 216.339 224.563 216.626 224.505C216.683 224.505 216.741 224.505 216.798 224.505C216.999 224.505 217.2 224.477 217.43 224.448C217.688 224.448 217.946 224.419 218.205 224.39C218.463 224.362 218.75 224.362 219.009 224.362C219.267 224.362 219.525 224.333 219.784 224.304C220.013 224.304 220.272 224.304 220.53 224.304H220.587C220.846 224.304 221.104 224.304 221.391 224.275H222.224C222.511 224.275 222.798 224.275 223.056 224.275H223.085C223.372 224.275 223.659 224.275 223.918 224.275H224.75C225.037 224.275 225.296 224.275 225.554 224.304H225.64C225.87 224.304 226.128 224.304 226.358 224.304C226.616 224.304 226.874 224.304 227.133 224.362C227.42 224.362 227.678 224.362 227.937 224.39L228.712 224.448C228.941 224.448 229.142 224.477 229.372 224.505C229.401 224.505 229.458 224.505 229.515 224.505C229.803 224.505 230.061 224.563 230.319 224.591C230.606 224.62 230.893 224.678 231.152 224.706C231.267 224.706 231.353 224.706 231.468 224.735C231.611 224.735 231.755 224.764 231.927 224.793V224.735C237.582 229.39 263.189 247.26 270.079 251.311C276.797 255.219 295.743 266.108 304.557 281.737C309.178 289.926 312.968 297.856 315.609 306.13C318.25 314.405 319.743 323.053 319.8 332.62C322.125 333.482 324.164 334.373 325.972 335.321V352.876C326.92 353.393 327.809 353.881 328.613 354.398V373.045L334.211 374.137L338.776 378.216V400.253L348.22 401.086L352.641 404.103L352.814 404.046Z" fill="#4B7545"/>
<path d="M224.233 213.759H224.377V212.466C225.324 212.208 226.07 211.317 226.07 210.225C226.07 209.421 225.324 208.386 224.377 207.783V205.743C224.779 205.686 225.123 205.341 225.123 204.939C225.123 204.536 224.779 204.192 224.377 204.134V202.496C225.468 202.439 226.271 201.606 226.271 200.658C226.271 199.623 225.468 198.819 224.377 198.761V196.377C224.779 196.233 225.123 195.888 225.123 195.486C225.123 195.084 224.779 194.739 224.377 194.682V193.188C225.267 192.986 225.869 192.239 225.869 191.349C225.869 190.602 225.267 189.51 224.377 189.309C223.774 189.165 222.511 189.165 221.937 189.309C221.104 189.51 220.444 190.602 220.444 191.349C220.444 192.239 221.133 192.986 221.937 193.188V194.682C221.535 194.739 221.19 195.084 221.19 195.486C221.19 195.888 221.535 196.233 221.937 196.377V198.761C220.846 198.819 220.042 199.652 220.042 200.658C220.042 201.606 220.846 202.439 221.937 202.496V204.134C221.535 204.192 221.19 204.536 221.19 204.939C221.19 205.341 221.535 205.686 221.937 205.743V207.783C221.047 208.386 220.243 209.421 220.243 210.225C220.243 211.317 220.989 212.208 221.937 212.466V213.759H222.08C220.731 218.27 213.985 219.477 214.329 224.734V224.792C214.329 224.792 214.588 224.734 214.817 224.734C214.875 224.734 214.961 224.677 215.076 224.677C215.334 224.677 215.621 224.619 215.879 224.619C216.138 224.562 216.425 224.562 216.683 224.562C216.741 224.562 216.827 224.504 216.884 224.504H217.487C217.745 224.447 218.032 224.447 218.291 224.447C218.492 224.39 218.779 224.39 219.037 224.39C219.296 224.39 219.583 224.39 219.841 224.332H221.42C221.678 224.275 221.965 224.275 222.224 224.275H224.004C224.262 224.275 224.549 224.275 224.807 224.332H226.386C226.645 224.39 226.932 224.39 227.19 224.39C227.448 224.39 227.735 224.39 227.994 224.447C228.195 224.447 228.482 224.447 228.74 224.504H229.429C229.429 224.504 229.487 224.562 229.573 224.562C229.831 224.562 230.118 224.562 230.377 224.619C230.635 224.619 230.922 224.677 231.18 224.677C231.324 224.677 231.381 224.734 231.525 224.734C231.668 224.734 231.783 224.734 231.927 224.792V224.734C232.329 219.477 225.582 218.27 224.176 213.759H224.233Z" fill="#B5974E"/>
<path d="M49.3475 65.9958H47.1371L44.3525 59.5313H43.4912C47.0797 58.8705 49.7782 56.0548 49.7782 52.6646C49.7782 49.9926 48.0844 47.6366 45.5582 46.4874L45.472 46.1139H46.2759C46.9935 46.1139 47.5677 45.5105 47.5677 44.7923C47.5677 44.074 46.9648 43.4994 46.2759 43.4994H44.984L44.295 39.8505H44.8118C45.5295 39.8505 46.1323 39.2472 46.1323 38.5289C46.1323 37.8106 45.5295 37.236 44.8118 37.236H43.807L43.6922 36.6326C45.9601 35.9718 47.5964 34.0756 47.5964 31.8346C47.5964 29.4499 45.7304 27.41 43.1755 26.8928V25.4275H44.8118C45.5295 25.4275 46.1323 24.8242 46.1323 24.1346C46.1323 23.4451 45.5295 22.813 44.8118 22.813H43.1755V21.4052C48.4863 20.7444 52.5915 16.2336 52.5915 10.746C52.5915 4.82738 47.7973 0.0292969 41.8836 0.0292969C35.9699 0.0292969 31.1758 4.82738 31.1758 10.746C31.1758 16.2336 35.2809 20.7444 40.5918 21.4052V22.813H38.9555C38.2378 22.813 37.6349 23.4164 37.6349 24.1346C37.6349 24.8529 38.2378 25.4275 38.9555 25.4275H40.5918V26.8928C38.0655 27.41 36.1709 29.4212 36.1709 31.8346C36.1709 34.0756 37.8072 35.9718 40.0751 36.6326L39.9602 37.236H38.9555C38.2378 37.236 37.6349 37.8393 37.6349 38.5289C37.6349 39.2184 38.2378 39.8505 38.9555 39.8505H39.4722L38.7832 43.4994H37.4914C36.7737 43.4994 36.1709 44.1027 36.1709 44.7923C36.1709 45.4818 36.7737 46.1139 37.4914 46.1139H38.2952L38.2091 46.4874C35.7115 47.6654 33.9891 49.9926 33.9891 52.6646C33.9891 56.0548 36.6876 58.8705 40.276 59.5313H39.4148L36.6302 65.9958H34.4197C33.4437 65.9958 32.6399 66.8002 32.6399 67.7771C32.6399 68.754 33.4437 69.5584 34.4197 69.5584H49.3188C50.2949 69.5584 51.0987 68.754 51.0987 67.7771C51.0987 66.8002 50.2949 65.9958 49.3188 65.9958H49.3475ZM34.0178 9.1945C34.0178 4.85611 37.5488 1.32219 41.8836 1.32219C46.2184 1.32219 49.7494 4.85611 49.7494 9.1945C49.7494 13.5329 46.2184 17.0668 41.8836 17.0668C37.5488 17.0668 34.0178 13.5329 34.0178 9.1945Z" fill="#B5974E"/>
</g>
<defs>
<clipPath id="clip0_1503_187">
<rect width="356" height="432" fill="white"/>
</clipPath>
</defs>
</svg>
